<svg width="21" height="20" viewBox="0 0 21 20" fill="none" xmlns="http://www.w3.org/2000/svg">
<path d="M16 15H5.5L3.5 1H1" stroke="#DD3218" stroke-width="1.5" stroke-linecap="round" stroke-linejoin="round"/>
<path d="M3.78571 3H20L17 12H5.07142" stroke="#DD3218" stroke-width="1.5" stroke-linecap="round" stroke-linejoin="round"/>
<path d="M8 19C9.1046 19 10 18.1046 10 17C10 15.8954 9.1046 15 8 15C6.89543 15 6 15.8954 6 17C6 18.1046 6.89543 19 8 19Z" stroke="#DD3218" stroke-width="1.5" stroke-linecap="round" stroke-linejoin="round"/>
<path d="M16 19C17.1046 19 18 18.1046 18 17C18 15.8954 17.1046 15 16 15C14.8954 15 14 15.8954 14 17C14 18.1046 14.8954 19 16 19Z" stroke="#DD3218" stroke-width="1.5" stroke-linecap="round" stroke-linejoin="round"/>
</svg>
